<svg width="20" height="20" viewBox="0 0 20 20" fill="none" xmlns="http://www.w3.org/2000/svg">
<path d="M19.5303 0.46967C19.8232 0.762563 19.8232 1.23744 19.5303 1.53033L12.8107 8.25H17C17.4142 8.25 17.75 8.58579 17.75 9C17.75 9.41421 17.4142 9.75 17 9.75H11C10.5858 9.75 10.25 9.41421 10.25 9V3C10.25 2.58579 10.5858 2.25 11 2.25C11.4142 2.25 11.75 2.58579 11.75 3V7.18934L18.4697 0.46967C18.7626 0.176777 19.2374 0.176777 19.5303 0.46967Z" fill="#FCFCFC"/>
<path d="M8.25 17C8.25 17.4142 8.58579 17.75 9 17.75C9.41421 17.75 9.75 17.4142 9.75 17V11C9.75 10.5858 9.41421 10.25 9 10.25H3C2.58579 10.25 2.25 10.5858 2.25 11C2.25 11.4142 2.58579 11.75 3 11.75H7.18934L0.46967 18.4697C0.176777 18.7626 0.176777 19.2374 0.46967 19.5303C0.762563 19.8232 1.23744 19.8232 1.53033 19.5303L8.25 12.8107V17Z" fill="#FCFCFC"/>
</svg>
