<svg width="12" height="12" viewBox="0 0 12 12" fill="none" xmlns="http://www.w3.org/2000/svg">
<path d="M10.3154 0.977264C10.5107 0.782001 10.8261 0.783116 11.02 0.979755C11.2139 1.17639 11.2127 1.49409 11.0175 1.68936L6.70703 5.99985L11.0177 10.3106C11.213 10.5059 11.2141 10.8236 11.0203 11.0202C10.8264 11.2168 10.5109 11.218 10.3157 11.0227L5.99994 6.70694L1.68423 11.0227C1.48897 11.218 1.17351 11.2168 0.979636 11.0202C0.78576 10.8236 0.786884 10.5059 0.982145 10.3106L5.29286 5.99985L0.982402 1.68936C0.787141 1.49409 0.786017 1.17639 0.979893 0.979755C1.17377 0.783116 1.48923 0.782001 1.68449 0.977264L5.99994 5.29276L10.3154 0.977264Z" fill="#FCFCFC"/>
</svg>
