<svg width="30" height="30" viewBox="0 0 30 30" fill="none" xmlns="http://www.w3.org/2000/svg">
<path fill-rule="evenodd" clip-rule="evenodd" d="M6.70667 2.66669C4.48563 2.66669 2.66667 4.48567 2.66667 6.70673C2.66667 8.92776 4.48561 10.7467 6.70667 10.7467H7.96001C8.51229 10.7467 8.96001 11.1944 8.96001 11.7467V21.8C8.96001 22.6344 9.64563 23.32 10.48 23.32C11.3144 23.32 12 22.6344 12 21.8V5.44004C12 3.92335 10.7521 2.66669 9.22669 2.66669H6.70667ZM0.666672 6.70673C0.666672 3.38112 3.38104 0.666687 6.70667 0.666687H9.22669C11.8613 0.666687 14 2.8234 14 5.44004V21.8C14 23.7389 12.4189 25.32 10.48 25.32C8.54101 25.32 6.96001 23.7389 6.96001 21.8V12.7467H6.70667C3.38106 12.7467 0.666672 10.0324 0.666672 6.70673Z" fill="#FCFCFC"/>
<path fill-rule="evenodd" clip-rule="evenodd" d="M6.70667 6.45339C6.56562 6.45339 6.45333 6.56568 6.45333 6.70673C6.45333 6.84769 6.56554 6.95998 6.70667 6.95998C7.25896 6.95998 7.70667 7.4077 7.70667 7.95998C7.70667 8.51227 7.25896 8.95998 6.70667 8.95998C5.46114 8.95998 4.45333 7.95243 4.45333 6.70673C4.45333 5.46111 5.46105 4.45339 6.70667 4.45339C7.25896 4.45339 7.70667 4.9011 7.70667 5.45339C7.70667 6.00567 7.25896 6.45339 6.70667 6.45339Z" fill="#FCFCFC"/>
<path fill-rule="evenodd" clip-rule="evenodd" d="M16 5.44004C16 2.8234 18.1387 0.666687 20.7733 0.666687H23.2933C26.619 0.666687 29.3333 3.38112 29.3333 6.70673C29.3333 10.0324 26.6189 12.7467 23.2933 12.7467H23.04V21.8C23.04 23.7389 21.459 25.32 19.52 25.32C17.5811 25.32 16 23.7389 16 21.8V5.44004ZM20.7733 2.66669C19.2479 2.66669 18 3.92335 18 5.44004V21.8C18 22.6344 18.6856 23.32 19.52 23.32C20.3544 23.32 21.04 22.6344 21.04 21.8V11.7467C21.04 11.1944 21.4877 10.7467 22.04 10.7467H23.2933C25.5144 10.7467 27.3333 8.92776 27.3333 6.70673C27.3333 4.48567 25.5144 2.66669 23.2933 2.66669H20.7733Z" fill="#FCFCFC"/>
<path fill-rule="evenodd" clip-rule="evenodd" d="M22.2933 5.45339C22.2933 4.9011 22.7411 4.45339 23.2933 4.45339C24.539 4.45339 25.5467 5.46111 25.5467 6.70673C25.5467 7.95243 24.5389 8.95998 23.2933 8.95998C22.7411 8.95998 22.2933 8.51227 22.2933 7.95998C22.2933 7.4077 22.7411 6.95998 23.2933 6.95998C23.4345 6.95998 23.5467 6.84769 23.5467 6.70673C23.5467 6.56568 23.4344 6.45339 23.2933 6.45339C22.7411 6.45339 22.2933 6.00567 22.2933 5.45339Z" fill="#FCFCFC"/>
<path fill-rule="evenodd" clip-rule="evenodd" d="M10.3333 23.3334C10.8856 23.3334 11.3333 23.7811 11.3333 24.3334V28.3334C11.3333 28.8856 10.8856 29.3334 10.3333 29.3334C9.78105 29.3334 9.33334 28.8856 9.33334 28.3334V24.3334C9.33334 23.7811 9.78105 23.3334 10.3333 23.3334Z" fill="#FCFCFC"/>
<path fill-rule="evenodd" clip-rule="evenodd" d="M19.6667 23.3334C20.219 23.3334 20.6667 23.7811 20.6667 24.3334V28.3334C20.6667 28.8856 20.219 29.3334 19.6667 29.3334C19.1144 29.3334 18.6667 28.8856 18.6667 28.3334V24.3334C18.6667 23.7811 19.1144 23.3334 19.6667 23.3334Z" fill="#FCFCFC"/>
</svg>
