<svg width="43" height="44" viewBox="0 0 43 44" fill="none" xmlns="http://www.w3.org/2000/svg">
<g filter="url(#filter0_dd_1_10)">
<path fill-rule="evenodd" clip-rule="evenodd" d="M21.5 32.5C28.9558 32.5 35 26.4558 35 19C35 11.5442 28.9558 5.5 21.5 5.5C14.0442 5.5 8 11.5442 8 19C8 26.4558 14.0442 32.5 21.5 32.5Z" fill="#FCFCFC"/>
</g>
<path fill-rule="evenodd" clip-rule="evenodd" d="M25.1728 10.429C24.726 10.2219 24.2168 10.1934 23.7496 10.3493L22.0096 10.9293C21.6789 11.0394 21.3205 11.0391 20.9898 10.9289L19.2493 10.3515C18.7825 10.1957 18.2738 10.2241 17.8271 10.4307C17.3802 10.6375 17.0288 11.0081 16.8454 11.4651L14.8974 16.3367C14.8684 16.4092 14.8513 16.4847 14.8458 16.5606C13.5893 16.6923 12.2439 16.8564 10.7696 17.053C10.359 17.1077 10.0706 17.4849 10.1253 17.8955C10.1801 18.3061 10.5573 18.5946 10.9679 18.5398C19.7641 17.367 23.8293 17.3679 32.0256 18.5388C32.4356 18.5974 32.8155 18.3125 32.8741 17.9025C32.9327 17.4924 32.6478 17.1125 32.2377 17.0539C30.7628 16.8432 29.4173 16.6698 28.1521 16.5337C28.1448 16.4668 28.1285 16.4005 28.1029 16.3366L26.1538 11.4637C25.9707 11.0063 25.6198 10.6362 25.1728 10.429ZM24.7612 12.021L26.2988 15.8651H16.7015L18.2379 12.0225C18.2789 11.9206 18.3573 11.8382 18.457 11.7921C18.5568 11.7459 18.6704 11.7396 18.7747 11.7745L18.7763 11.775L20.5175 12.3526C21.1557 12.565 21.8457 12.5648 22.4839 12.3523L24.2242 11.7722C24.3286 11.7374 24.4423 11.7437 24.5421 11.79C24.6419 11.8362 24.7203 11.919 24.7612 12.021Z" fill="#010123"/>
<path fill-rule="evenodd" clip-rule="evenodd" d="M19.8839 24.4528C19.8441 25.3769 19.4595 26.2551 18.8027 26.9119C18.1082 27.6064 17.1663 27.9966 16.1841 27.9966C15.202 27.9966 14.2601 27.6064 13.5656 26.9119C12.8711 26.2174 12.481 25.2755 12.481 24.2934C12.481 23.3112 12.8711 22.3693 13.5656 21.6748C14.2601 20.9804 15.202 20.5902 16.1841 20.5902C17.1663 20.5902 18.1082 20.9804 18.8027 21.6748C19.1028 21.975 19.3461 22.3213 19.5256 22.6971C20.1541 22.4541 20.8234 22.3286 21.5002 22.3286C22.1768 22.3286 22.8459 22.454 23.4742 22.6969C23.6538 22.3211 23.897 21.9749 24.1971 21.6748C24.8915 20.9804 25.8335 20.5902 26.8156 20.5902C27.7977 20.5902 28.7397 20.9804 29.4341 21.6748C30.1286 22.3693 30.5188 23.3112 30.5188 24.2934C30.5188 25.2755 30.1286 26.2174 29.4341 26.9119C28.7397 27.6064 27.7977 27.9966 26.8156 27.9966C25.8335 27.9966 24.8915 27.6064 24.1971 26.9119C23.5402 26.2551 23.1556 25.3769 23.1158 24.4528H19.8839ZM14.6263 22.7355C15.0394 22.3223 15.5998 22.0902 16.1841 22.0902C16.7685 22.0902 17.3289 22.3223 17.742 22.7355C18.1552 23.1487 18.3873 23.7091 18.3873 24.2934C18.3873 24.8777 18.1552 25.4381 17.742 25.8513C17.3289 26.2644 16.7685 26.4966 16.1841 26.4966C15.5998 26.4966 15.0394 26.2644 14.6263 25.8513C14.2131 25.4381 13.981 24.8777 13.981 24.2934C13.981 23.7091 14.2131 23.1487 14.6263 22.7355ZM25.2577 22.7355C25.6709 22.3223 26.2313 22.0902 26.8156 22.0902C27.3999 22.0902 27.9603 22.3223 28.3735 22.7355C28.7867 23.1487 29.0188 23.7091 29.0188 24.2934C29.0188 24.8777 28.7867 25.4381 28.3735 25.8513C27.9603 26.2644 27.3999 26.4966 26.8156 26.4966C26.2313 26.4966 25.6709 26.2644 25.2577 25.8513C24.8445 25.4381 24.6124 24.8777 24.6124 24.2934C24.6124 23.7091 24.8445 23.1487 25.2577 22.7355Z" fill="#010123"/>
<defs>
<filter id="filter0_dd_1_10" x="0" y="0.5" width="43" height="43" filterUnits="userSpaceOnUse" color-interpolation-filters="sRGB">
<feFlood flood-opacity="0" result="BackgroundImageFix"/>
<feColorMatrix in="SourceAlpha" type="matrix" values="0 0 0 0 0 0 0 0 0 0 0 0 0 0 0 0 0 0 127 0" result="hardAlpha"/>
<feOffset dy="3"/>
<feGaussianBlur stdDeviation="0.5"/>
<feColorMatrix type="matrix" values="0 0 0 0 0 0 0 0 0 0 0 0 0 0 0 0 0 0 0.06 0"/>
<feBlend mode="normal" in2="BackgroundImageFix" result="effect1_dropShadow_1_10"/>
<feColorMatrix in="SourceAlpha" type="matrix" values="0 0 0 0 0 0 0 0 0 0 0 0 0 0 0 0 0 0 127 0" result="hardAlpha"/>
<feOffset dy="3"/>
<feGaussianBlur stdDeviation="4"/>
<feColorMatrix type="matrix" values="0 0 0 0 0 0 0 0 0 0 0 0 0 0 0 0 0 0 0.15 0"/>
<feBlend mode="normal" in2="effect1_dropShadow_1_10" result="effect2_dropShadow_1_10"/>
<feBlend mode="normal" in="SourceGraphic" in2="effect2_dropShadow_1_10" result="shape"/>
</filter>
</defs>
</svg>
