<svg width="30" height="29" viewBox="0 0 30 29" fill="none" xmlns="http://www.w3.org/2000/svg">
<path fill-rule="evenodd" clip-rule="evenodd" d="M10.3333 6.62661C10.8856 6.62661 11.3333 7.07433 11.3333 7.62661V14C11.3333 14.5523 10.8856 15 10.3333 15C9.78104 15 9.33332 14.5523 9.33332 14V7.62661C9.33332 7.07433 9.78104 6.62661 10.3333 6.62661Z" fill="#FCFCFC"/>
<path fill-rule="evenodd" clip-rule="evenodd" d="M10.3333 22.3333C10.8856 22.3333 11.3333 22.781 11.3333 23.3333V27.3333C11.3333 27.8856 10.8856 28.3333 10.3333 28.3333C9.78104 28.3333 9.33332 27.8856 9.33332 27.3333V23.3333C9.33332 22.781 9.78104 22.3333 10.3333 22.3333Z" fill="#FCFCFC"/>
<path fill-rule="evenodd" clip-rule="evenodd" d="M19.6667 6.62661C20.2189 6.62661 20.6667 7.07433 20.6667 7.62661V27.3333C20.6667 27.8856 20.2189 28.3333 19.6667 28.3333C19.1144 28.3333 18.6667 27.8856 18.6667 27.3333V7.62661C18.6667 7.07433 19.1144 6.62661 19.6667 6.62661Z" fill="#FCFCFC"/>
<path fill-rule="evenodd" clip-rule="evenodd" d="M6.17125 2.22136C6.34026 1.88152 6.68709 1.66665 7.06664 1.66665H10.0666C11.9389 1.66665 13.4667 3.19433 13.4667 5.06663C13.4667 5.98356 13.0959 6.85163 12.4672 7.46713C11.8539 8.09374 10.9998 8.46662 10.0666 8.46662H7.06664C6.68709 8.46662 6.34026 8.25174 6.17125 7.9119C6.00224 7.57206 6.0402 7.16583 6.26923 6.86317C6.51347 6.54043 6.66666 6.11158 6.66666 5.66665V4.46662C6.66666 4.02168 6.51347 3.59284 6.26923 3.27009C6.0402 2.96744 6.00224 2.56121 6.17125 2.22136ZM8.5853 3.66665C8.63861 3.92697 8.66666 4.19505 8.66666 4.46662V5.66665C8.66666 5.93822 8.63861 6.2063 8.5853 6.46662H10.0666C10.4614 6.46662 10.8028 6.3106 11.0421 6.06385C11.0492 6.05648 11.0565 6.04923 11.0639 6.04209C11.3085 5.80488 11.4667 5.45101 11.4667 5.06663C11.4667 4.29894 10.8344 3.66665 10.0666 3.66665H8.5853Z" fill="#FCFCFC"/>
<path fill-rule="evenodd" clip-rule="evenodd" d="M2.72149 3.39799C2.71371 3.41209 2.70312 3.43428 2.69261 3.46263C2.6816 3.49231 2.67389 3.52008 2.66948 3.54143C2.66795 3.54882 2.6671 3.55404 2.66666 3.5571V6.66046C2.66701 6.66335 2.66805 6.67074 2.6707 6.68258C2.67583 6.70542 2.68449 6.73342 2.69639 6.76198C2.70651 6.78626 2.71628 6.8045 2.7232 6.81587C3.51152 7.51004 4.24869 7.70254 4.82348 7.6594C5.41268 7.61518 5.92671 7.31835 6.26759 6.86533L6.26923 6.86317C6.51347 6.54043 6.66666 6.11158 6.66666 5.66665V4.46662C6.66666 4.0282 6.51759 3.59841 6.26902 3.25663C6.20059 3.16941 6.13724 3.0981 6.07955 3.0404C5.38742 2.34828 4.01951 2.0599 2.72149 3.39799ZM1.24998 2.04281C3.30462 -0.109675 5.97696 0.109394 7.49376 1.62619C7.62041 1.75285 7.74093 1.89141 7.85599 2.03934L7.8717 2.06009C8.36534 2.73003 8.66666 3.57606 8.66666 4.46662V5.66665C8.66666 6.55456 8.3668 7.40519 7.86487 8.06895C7.1924 8.96201 6.16012 9.56471 4.97315 9.65379C3.77665 9.74358 2.51518 9.30682 1.37779 8.29593C1.11952 8.06855 0.951812 7.77497 0.850252 7.53124C0.745774 7.28051 0.666656 6.97532 0.666656 6.66663V3.5466C0.666656 3.26813 0.734464 2.99087 0.817387 2.76725C0.898978 2.54722 1.03331 2.27601 1.24054 2.05283L1.24998 2.04281Z" fill="#FCFCFC"/>
<path fill-rule="evenodd" clip-rule="evenodd" d="M16.5333 5.06663C16.5333 3.19433 18.0611 1.66665 19.9333 1.66665H22.9333C23.3129 1.66665 23.6597 1.88152 23.8287 2.22136C23.9977 2.56121 23.9598 2.96744 23.7307 3.27009C23.4865 3.59284 23.3333 4.02168 23.3333 4.46662V5.66665C23.3333 6.11158 23.4865 6.54043 23.7307 6.86317C23.9598 7.16583 23.9977 7.57206 23.8287 7.9119C23.6597 8.25174 23.3129 8.46662 22.9333 8.46662H19.9333C19.0002 8.46662 18.1461 8.09374 17.5328 7.46713C16.9041 6.85163 16.5333 5.98356 16.5333 5.06663ZM19.9333 3.66665C19.1656 3.66665 18.5333 4.29894 18.5333 5.06663C18.5333 5.45101 18.6915 5.80488 18.9361 6.04209C18.9435 6.04923 18.9507 6.05648 18.9579 6.06385C19.1972 6.3106 19.5386 6.46662 19.9333 6.46662H21.4147C21.3614 6.2063 21.3333 5.93822 21.3333 5.66665V4.46662C21.3333 4.19505 21.3614 3.92697 21.4147 3.66665H19.9333Z" fill="#FCFCFC"/>
<path fill-rule="evenodd" clip-rule="evenodd" d="M22.5062 1.62619C24.023 0.109394 26.6954 -0.109675 28.75 2.04281L28.7595 2.05277C28.9667 2.27594 29.101 2.54722 29.1826 2.76725C29.2655 2.99087 29.3333 3.26813 29.3333 3.5466V6.66663C29.3333 6.97532 29.2542 7.28051 29.1497 7.53124C29.0481 7.77518 28.8802 8.06904 28.6215 8.2965C27.4843 9.30698 26.2231 9.74357 25.0268 9.65379C23.8394 9.56468 22.8067 8.96152 22.1343 8.06786C21.6329 7.40426 21.3333 6.55408 21.3333 5.66665V4.46662C21.3333 3.57606 21.6346 2.73003 22.1283 2.06009L22.144 2.03934C22.2591 1.89141 22.3796 1.75285 22.5062 1.62619ZM27.2785 3.39799C25.9805 2.0599 24.6126 2.34828 23.9204 3.0404C23.8627 3.0981 23.7994 3.16941 23.731 3.25664C23.4824 3.59841 23.3333 4.0282 23.3333 4.46662V5.66665C23.3333 6.11158 23.4865 6.54043 23.7307 6.86317L23.7324 6.86533C24.0733 7.31835 24.5873 7.61518 25.1765 7.6594C25.7513 7.70254 26.4885 7.51004 27.2768 6.81587C27.2837 6.8045 27.2935 6.78626 27.3036 6.76198C27.3155 6.73342 27.3241 6.70542 27.3293 6.68258C27.3319 6.67074 27.333 6.66335 27.3333 6.66046V3.5571C27.3329 3.55404 27.332 3.54882 27.3305 3.54143C27.3261 3.52008 27.3184 3.49231 27.3074 3.46263C27.2969 3.43428 27.2863 3.41209 27.2785 3.39799Z" fill="#FCFCFC"/>
<path fill-rule="evenodd" clip-rule="evenodd" d="M10.3333 15C9.77894 15 9.33332 15.4456 9.33332 16V21.3333C9.33332 21.8877 9.77894 22.3333 10.3333 22.3333C10.8877 22.3333 11.3333 21.8877 11.3333 21.3333V16C11.3333 15.4456 10.8877 15 10.3333 15ZM7.33332 16C7.33332 14.341 8.67437 13 10.3333 13C11.9923 13 13.3333 14.341 13.3333 16V21.3333C13.3333 22.9923 11.9923 24.3333 10.3333 24.3333C8.67437 24.3333 7.33332 22.9923 7.33332 21.3333V16Z" fill="#FCFCFC"/>
</svg>
