<svg width="23" height="23" viewBox="0 0 23 23" fill="none" xmlns="http://www.w3.org/2000/svg">
<path fill-rule="evenodd" clip-rule="evenodd" d="M2.09467 3.09458C3.42914 1.76012 5.42603 1.24991 8 1.24991H10C10.4142 1.24991 10.75 1.5857 10.75 1.99991C10.75 2.41413 10.4142 2.74991 10 2.74991H8C5.57397 2.74991 4.07086 3.23971 3.15533 4.15524C2.2398 5.07078 1.75 6.57389 1.75 8.99991V14.9999C1.75 17.4259 2.2398 18.9291 3.15533 19.8446C4.07086 20.7601 5.57397 21.2499 8 21.2499H14C16.426 21.2499 17.9291 20.7601 18.8447 19.8446C19.7602 18.9291 20.25 17.4259 20.25 14.9999V12.9999C20.25 12.5857 20.5858 12.2499 21 12.2499C21.4142 12.2499 21.75 12.5857 21.75 12.9999V14.9999C21.75 17.5739 21.2398 19.5708 19.9053 20.9052C18.5709 22.2397 16.574 22.7499 14 22.7499H8C5.42603 22.7499 3.42914 22.2397 2.09467 20.9052C0.760201 19.5708 0.25 17.5739 0.25 14.9999V8.99991C0.25 6.42594 0.760201 4.42905 2.09467 3.09458Z" fill="#FCFCFC"/>
<path fill-rule="evenodd" clip-rule="evenodd" d="M17.1967 1.0135C18.3101 0.904216 19.4139 1.39315 20.5103 2.48958C21.6068 3.58602 22.0957 4.68983 21.9864 5.80318C21.881 6.87719 21.2333 7.76732 20.5103 8.49024L12.6216 16.3789C12.3964 16.5969 12.1021 16.7873 11.8181 16.93C11.5357 17.0719 11.2031 17.1971 10.8861 17.2424L7.87225 17.6729C7.13016 17.775 6.42014 17.5724 5.922 17.0763C5.42279 16.5791 5.21859 15.8689 5.32773 15.1225L5.32795 15.121L5.7572 12.1163L5.75738 12.1149C5.80242 11.7937 5.92694 11.4587 6.06988 11.1744C6.21312 10.8894 6.40599 10.5933 6.62967 10.3696L14.5097 2.48958C15.2326 1.76666 16.1227 1.11893 17.1967 1.0135ZM17.3433 2.50633C16.7873 2.5609 16.2074 2.91317 15.5703 3.55024L7.69033 11.4302C7.61401 11.5066 7.50688 11.6555 7.41012 11.848C7.31325 12.0407 7.25792 12.2152 7.2428 12.3236L7.24246 12.326L6.81246 15.336L6.81205 15.3388C6.76169 15.6819 6.86255 15.896 6.9805 16.0135C7.09966 16.1322 7.31909 16.2344 7.66597 16.1872L7.66775 16.1869L10.6739 15.7575C10.7769 15.7427 10.9493 15.6879 11.1444 15.5898C11.3352 15.4939 11.4892 15.3861 11.5748 15.3045L19.4497 7.42958C20.0867 6.79251 20.439 6.21264 20.4936 5.65665C20.5443 5.14 20.3532 4.45381 19.4497 3.55024C18.5461 2.64668 17.8599 2.45561 17.3433 2.50633Z" fill="#FCFCFC"/>
<path fill-rule="evenodd" clip-rule="evenodd" d="M13.7076 3.42775C14.1064 3.31595 14.5204 3.54863 14.6322 3.94747C15.2313 6.08458 16.9041 7.75905 19.0545 8.36832C19.453 8.48124 19.6845 8.89584 19.5716 9.29437C19.4587 9.69289 19.0441 9.92443 18.6455 9.81151C15.9959 9.06078 13.9287 6.99525 13.1878 4.35236C13.076 3.95352 13.3087 3.53956 13.7076 3.42775Z" fill="#FCFCFC"/>
</svg>
