<svg width="20" height="20" viewBox="0 0 20 20" fill="none" xmlns="http://www.w3.org/2000/svg">
<path fill-rule="evenodd" clip-rule="evenodd" d="M12.25 1.00244C12.25 0.588228 12.5858 0.252441 13 0.252441H19C19.4142 0.252441 19.75 0.588228 19.75 1.00244V7.00244C19.75 7.41666 19.4142 7.75244 19 7.75244C18.5858 7.75244 18.25 7.41666 18.25 7.00244V1.75244H13C12.5858 1.75244 12.25 1.41665 12.25 1.00244Z" fill="#FCFCFC"/>
<path fill-rule="evenodd" clip-rule="evenodd" d="M1 12.2524C1.41421 12.2524 1.75 12.5882 1.75 13.0024V18.2524H7C7.41421 18.2524 7.75 18.5882 7.75 19.0024C7.75 19.4167 7.41421 19.7524 7 19.7524H1C0.585786 19.7524 0.25 19.4167 0.25 19.0024V13.0024C0.25 12.5882 0.585786 12.2524 1 12.2524Z" fill="#FCFCFC"/>
<path fill-rule="evenodd" clip-rule="evenodd" d="M19.5303 0.472111C19.8232 0.765005 19.8232 1.23988 19.5303 1.53277L12.0303 9.03277C11.7374 9.32566 11.2626 9.32566 10.9697 9.03277C10.6768 8.73988 10.6768 8.26501 10.9697 7.97211L18.4697 0.472111C18.7626 0.179218 19.2374 0.179218 19.5303 0.472111Z" fill="#FCFCFC"/>
<path fill-rule="evenodd" clip-rule="evenodd" d="M9.03033 10.9721C9.32322 11.265 9.32322 11.7399 9.03033 12.0328L1.53033 19.5328C1.23744 19.8257 0.762563 19.8257 0.46967 19.5328C0.176777 19.2399 0.176777 18.765 0.46967 18.4721L7.96967 10.9721C8.26256 10.6792 8.73744 10.6792 9.03033 10.9721Z" fill="#FCFCFC"/>
</svg>
