<svg width="22" height="22" viewBox="0 0 22 22" fill="none" xmlns="http://www.w3.org/2000/svg">
<path fill-rule="evenodd" clip-rule="evenodd" d="M2.09467 2.09467C3.42914 0.760201 5.42603 0.25 8 0.25H14C16.574 0.25 18.5709 0.760201 19.9053 2.09467C21.2398 3.42914 21.75 5.42603 21.75 8V14C21.75 16.574 21.2398 18.5709 19.9053 19.9053C18.5709 21.2398 16.574 21.75 14 21.75H8C5.42603 21.75 3.42914 21.2398 2.09467 19.9053C0.760201 18.5709 0.25 16.574 0.25 14V8C0.25 5.42603 0.760201 3.42914 2.09467 2.09467ZM3.15533 3.15533C2.2398 4.07086 1.75 5.57397 1.75 8V14C1.75 16.426 2.2398 17.9291 3.15533 18.8447C4.07086 19.7602 5.57397 20.25 8 20.25H14C16.426 20.25 17.9291 19.7602 18.8447 18.8447C19.7602 17.9291 20.25 16.426 20.25 14V8C20.25 5.57397 19.7602 4.07086 18.8447 3.15533C17.9291 2.2398 16.426 1.75 14 1.75H8C5.57397 1.75 4.07086 2.2398 3.15533 3.15533Z" fill="#010123"/>
<path fill-rule="evenodd" clip-rule="evenodd" d="M7.41998 13.72C6.96711 13.72 6.59998 14.0871 6.59998 14.54C6.59998 14.9929 6.96711 15.36 7.41998 15.36C7.87286 15.36 8.23999 14.9929 8.23999 14.54C8.23999 14.0871 7.87286 13.72 7.41998 13.72ZM5.09998 14.54C5.09998 13.2587 6.13868 12.22 7.41998 12.22C8.70128 12.22 9.73999 13.2587 9.73999 14.54C9.73999 15.8213 8.70128 16.86 7.41998 16.86C6.13868 16.86 5.09998 15.8213 5.09998 14.54Z" fill="#010123"/>
<path fill-rule="evenodd" clip-rule="evenodd" d="M14.614 5.49455C15.2396 5.85924 15.5 6.54601 15.5 7.34997V13.49C15.5 13.9042 15.1642 14.24 14.75 14.24C14.3358 14.24 14 13.9042 14 13.49V7.34997C14 7.09636 13.9597 6.95234 13.9262 6.87867C13.897 6.81444 13.8713 6.79791 13.8585 6.79044C13.809 6.76159 13.641 6.71837 13.3003 6.81278L13.2981 6.81338L10.1608 7.67265C9.89153 7.74886 9.75 7.9213 9.75 8.21002V14.55C9.75 14.9642 9.41421 15.3 9 15.3C8.58579 15.3 8.25 14.9642 8.25 14.55V8.21002C8.25 7.19943 8.88783 6.47198 9.75733 6.22792L9.7619 6.22663L12.8997 5.36726C12.9001 5.36715 12.9004 5.36705 12.9008 5.36694C13.39 5.23157 14.0464 5.16368 14.614 5.49455Z" fill="#010123"/>
<path fill-rule="evenodd" clip-rule="evenodd" d="M13.18 12.67C12.7271 12.67 12.36 13.0371 12.36 13.49C12.36 13.9429 12.7271 14.31 13.18 14.31C13.6329 14.31 14 13.9429 14 13.49C14 13.0371 13.6329 12.67 13.18 12.67ZM10.86 13.49C10.86 12.2087 11.8987 11.17 13.18 11.17C14.4613 11.17 15.5 12.2087 15.5 13.49C15.5 14.7713 14.4613 15.81 13.18 15.81C11.8987 15.81 10.86 14.7713 10.86 13.49Z" fill="#010123"/>
<path fill-rule="evenodd" clip-rule="evenodd" d="M15.4736 8.27274C15.5825 8.67237 15.3469 9.08464 14.9472 9.19357L9.18722 10.7636C8.78759 10.8725 8.37532 10.6368 8.26639 10.2372C8.15746 9.83758 8.39312 9.42531 8.79276 9.31638L14.5528 7.74637C14.9524 7.63744 15.3647 7.8731 15.4736 8.27274Z" fill="#010123"/>
</svg>
