<svg width="40" height="41" viewBox="0 0 40 41" fill="none" xmlns="http://www.w3.org/2000/svg">
<rect y="0.00244141" width="40" height="40" rx="20" fill="#FB923C"/>
<path fill-rule="evenodd" clip-rule="evenodd" d="M18.9301 11.8494L17.1721 15.3655C16.9847 15.7463 16.6718 16.0718 16.3505 16.31C16.0282 16.549 15.6277 16.752 15.2156 16.822L15.2129 16.8224L12.0233 17.3524C11.1337 17.5007 10.8439 17.8511 10.777 18.0607C10.7098 18.2711 10.7433 18.7253 11.3803 19.3622L13.8603 21.8422C14.1827 22.1646 14.3984 22.5958 14.5173 23.0112C14.6363 23.4269 14.6808 23.9051 14.5818 24.3466L14.5807 24.3516L13.8707 27.4216C13.6063 28.5643 13.8737 28.9814 14.0096 29.0805C14.146 29.18 14.6264 29.3075 15.6372 28.7076L18.6328 26.9343C19.0488 26.6923 19.5469 26.5926 20.0037 26.5926C20.4599 26.5926 20.9582 26.692 21.3721 26.9372L24.3614 28.7068C25.3806 29.3087 25.8605 29.1817 25.9944 29.084C26.1271 28.9873 26.3946 28.5727 26.1292 27.421L25.4181 24.3466C25.3192 23.9051 25.3637 23.4269 25.4827 23.0112C25.6016 22.5958 25.8173 22.1646 26.1397 21.8422L28.6197 19.3622L28.6215 19.3604C29.2627 18.7236 29.2943 18.2707 29.2272 18.0621C29.1596 17.8518 28.8674 17.5009 27.9771 17.3524L24.7871 16.8224C24.3707 16.753 23.9671 16.5508 23.6422 16.3111C23.3186 16.0723 23.0054 15.7466 22.818 15.3656L21.0585 11.8466C20.6377 11.0006 20.21 10.8301 19.9987 10.8301C19.7861 10.8301 19.3558 11.0027 18.9301 11.8494ZM22.4012 11.1779C21.872 10.1143 21.0447 9.33008 19.9987 9.33008C18.9539 9.33008 18.1241 10.1129 17.5899 11.1758L15.8292 14.6972L15.8265 14.7027C15.7736 14.8105 15.6473 14.964 15.457 15.1051C15.2674 15.2457 15.0834 15.3227 14.9655 15.343L14.9644 15.3432L11.7771 15.8727C10.627 16.0644 9.66109 16.6241 9.34804 17.6044C9.03522 18.584 9.49666 19.5999 10.3197 20.4229L12.7997 22.9029C12.8973 23.0005 13.0066 23.1844 13.0752 23.424C13.1434 23.6621 13.1491 23.8781 13.1186 24.0166L13.1182 24.0185L12.4093 27.0835C12.1138 28.3608 12.2163 29.6288 13.1254 30.2922C14.034 30.9552 15.2736 30.6676 16.4028 29.9976L19.3872 28.2308L19.389 28.2298C19.5233 28.1523 19.7444 28.0926 20.0037 28.0926C20.265 28.0926 20.4816 28.1531 20.6076 28.2278L23.5979 29.998C24.7284 30.6657 25.9696 30.9584 26.8781 30.2961C27.7879 29.6329 27.8854 28.3624 27.5908 27.0842L26.8818 24.0185L26.8814 24.0166C26.8509 23.8781 26.8566 23.6621 26.9248 23.424C26.9934 23.1844 27.1027 23.0005 27.2003 22.9029L29.6785 20.4247L29.6795 20.4237C30.5077 19.6007 30.9706 18.5841 30.6553 17.6031C30.3404 16.6234 29.3726 16.0643 28.2233 15.8728L25.0333 15.3428" fill="#010123"/>
</svg>
