<svg width="20" height="30" viewBox="0 0 20 30" fill="none" xmlns="http://www.w3.org/2000/svg">
<path fill-rule="evenodd" clip-rule="evenodd" d="M10.6644 0.848592C11.6368 0.395528 12.6688 0.844912 13.4387 1.48389L13.4404 1.48531L18.5735 5.76513C19.7643 6.7576 19.7823 8.46513 18.6643 9.4954L18.6624 9.49722L12.6589 15L18.6643 20.5047C19.7823 21.5349 19.7645 23.2423 18.5737 24.2348L13.4404 28.5148L13.4387 28.5162C12.6688 29.1551 11.6368 29.6045 10.6644 29.1515C9.68917 28.6971 9.37334 27.6155 9.37334 26.6134V18.0116L2.19572 24.5906C1.78859 24.9637 1.15603 24.9362 0.782847 24.5291C0.409669 24.122 0.437195 23.4894 0.844327 23.1162L9.37334 15.2985V14.7016L0.844327 6.88386C0.437195 6.51068 0.409669 5.87811 0.782847 5.47098C1.15603 5.06385 1.78859 5.03632 2.19572 5.4095L9.37334 11.9885V3.38671C9.37334 2.38459 9.68917 1.30294 10.6644 0.848592ZM11.3733 16.5348L17.309 21.9754C17.5501 22.1983 17.542 22.4912 17.2932 22.6985L12.1613 26.9772C11.9028 27.1916 11.7069 27.2842 11.5892 27.3171C11.5537 27.3271 11.5287 27.3309 11.5125 27.3322C11.5035 27.3193 11.4912 27.2986 11.4769 27.2668C11.4275 27.1571 11.3733 26.9497 11.3733 26.6134V16.5348ZM11.3733 13.4653V3.38671C11.3733 3.05038 11.4275 2.84294 11.4769 2.73326C11.4912 2.70145 11.5035 2.68075 11.5125 2.66787C11.5287 2.66916 11.5537 2.67301 11.5892 2.68293C11.7069 2.71582 11.902 2.80771 12.1606 3.0222L17.293 7.30141C17.5418 7.50874 17.5509 7.80103 17.3098 8.02394L11.3733 13.4653Z" fill="#FCFCFC"/>
</svg>
