<svg width="20" height="15" viewBox="0 0 20 15" fill="none" xmlns="http://www.w3.org/2000/svg">
<path fill-rule="evenodd" clip-rule="evenodd" d="M12.9384 0.143229C12.5809 -0.0224592 12.1736 -0.0452903 11.7998 0.0794008L10.4078 0.543405C10.1432 0.631496 9.85651 0.631257 9.59193 0.543135L8.19952 0.0812021C7.82606 -0.0434001 7.41912 -0.0207384 7.06179 0.144578C6.70425 0.309997 6.42311 0.606453 6.27639 0.972067L4.71805 4.86933C4.69485 4.92734 4.68116 4.98778 4.67674 5.04851C3.67151 5.15383 2.59518 5.28512 1.41579 5.44237C1.08733 5.48617 0.856557 5.78794 0.900352 6.11641C0.944147 6.44487 1.24592 6.67564 1.57439 6.63185C8.61134 5.69359 11.8635 5.69436 18.4206 6.63108C18.7486 6.67794 19.0525 6.45 19.0994 6.12196C19.1463 5.79392 18.9183 5.49 18.5903 5.44314C17.4104 5.27458 16.3339 5.13585 15.3218 5.02692C15.316 4.97346 15.3029 4.92041 15.2824 4.86926L13.7231 0.97095C13.5767 0.605052 13.2959 0.308949 12.9384 0.143229ZM12.609 1.41682L13.8391 4.49209H6.16126L7.39044 1.41803C7.42324 1.33651 7.4859 1.27057 7.56566 1.23367C7.6455 1.19673 7.73644 1.19168 7.81988 1.21957L7.82112 1.21998L9.21408 1.6821C9.72467 1.85199 10.2767 1.85187 10.7872 1.68183L12.1795 1.21775C12.263 1.18988 12.3539 1.19498 12.4338 1.23199C12.5136 1.26898 12.5763 1.33516 12.609 1.41682Z" fill="#010123"/>
<path fill-rule="evenodd" clip-rule="evenodd" d="M8.70721 11.3622C8.67539 12.1016 8.36771 12.8041 7.84225 13.3295C7.28666 13.8851 6.53313 14.1973 5.74741 14.1973C4.96169 14.1973 4.20816 13.8851 3.65257 13.3295C3.09699 12.774 2.78486 12.0204 2.78486 11.2347C2.78486 10.449 3.09699 9.69546 3.65257 9.13987C4.20816 8.58428 4.96169 8.27216 5.74741 8.27216C6.53313 8.27216 7.28666 8.58428 7.84225 9.13987C8.08234 9.37996 8.27696 9.65702 8.42058 9.95766C8.92335 9.76326 9.45884 9.66289 10.0003 9.66289C10.5415 9.66289 11.0769 9.7632 11.5795 9.95749C11.7231 9.65691 11.9177 9.37992 12.1577 9.13987C12.7133 8.58428 13.4669 8.27216 14.2526 8.27216C15.0383 8.27216 15.7918 8.58428 16.3474 9.13987C16.903 9.69546 17.2151 10.449 17.2151 11.2347C17.2151 12.0204 16.903 12.774 16.3474 13.3295C15.7918 13.8851 15.0383 14.1973 14.2526 14.1973C13.4669 14.1973 12.7133 13.8851 12.1577 13.3295C11.6323 12.8041 11.3246 12.1016 11.2928 11.3622H8.70721ZM4.5011 9.9884C4.83164 9.65786 5.27995 9.47216 5.74741 9.47216C6.21487 9.47216 6.66318 9.65786 6.99372 9.9884C7.32426 10.3189 7.50996 10.7673 7.50996 11.2347C7.50996 11.7022 7.32426 12.1505 6.99372 12.481C6.66318 12.8116 6.21487 12.9973 5.74741 12.9973C5.27995 12.9973 4.83164 12.8116 4.5011 12.481C4.17056 12.1505 3.98486 11.7022 3.98486 11.2347C3.98486 10.7673 4.17056 10.3189 4.5011 9.9884ZM13.0063 9.9884C13.3368 9.65786 13.7851 9.47216 14.2526 9.47216C14.72 9.47216 15.1683 9.65786 15.4989 9.9884C15.8294 10.3189 16.0151 10.7673 16.0151 11.2347C16.0151 11.7022 15.8294 12.1505 15.4989 12.481C15.1683 12.8116 14.72 12.9973 14.2526 12.9973C13.7851 12.9973 13.3368 12.8116 13.0063 12.481C12.6757 12.1505 12.49 11.7022 12.49 11.2347C12.49 10.7673 12.6757 10.3189 13.0063 9.9884Z" fill="#010123"/>
</svg>
