<svg width="16" height="16" viewBox="0 0 16 16" fill="none" xmlns="http://www.w3.org/2000/svg">
<path fill-rule="evenodd" clip-rule="evenodd" d="M2.06312 2.06328C2.95276 1.17363 4.28402 0.833496 6 0.833496H10C11.716 0.833496 13.0472 1.17363 13.9369 2.06328C14.8265 2.95292 15.1667 4.28418 15.1667 6.00016V10.0002C15.1667 11.7161 14.8265 13.0474 13.9369 13.937C13.0472 14.8267 11.716 15.1668 10 15.1668H6C4.28402 15.1668 2.95276 14.8267 2.06312 13.937C1.17347 13.0474 0.833336 11.7161 0.833336 10.0002V6.00016C0.833336 4.28418 1.17347 2.95292 2.06312 2.06328ZM2.77022 2.77038C2.15987 3.38074 1.83334 4.38281 1.83334 6.00016V10.0002C1.83334 11.6175 2.15987 12.6196 2.77022 13.2299C3.38058 13.8403 4.38265 14.1668 6 14.1668H10C11.6174 14.1668 12.6194 13.8403 13.2298 13.2299C13.8401 12.6196 14.1667 11.6175 14.1667 10.0002V6.00016C14.1667 4.38281 13.8401 3.38074 13.2298 2.77038C12.6194 2.16003 11.6174 1.8335 10 1.8335H6C4.38265 1.8335 3.38058 2.16003 2.77022 2.77038Z" fill="#FCFCFC"/>
<path fill-rule="evenodd" clip-rule="evenodd" d="M6.80695 5.29278C7.00249 5.09779 7.31907 5.09824 7.51406 5.29378L9.86072 7.64711C10.0553 7.84226 10.0553 8.15807 9.86072 8.35321L7.51406 10.7065C7.31907 10.9021 7.00249 10.9025 6.80695 10.7076C6.61141 10.5126 6.61096 10.196 6.80595 10.0004L8.80056 8.00016L6.80595 5.99988C6.61096 5.80434 6.61141 5.48776 6.80695 5.29278Z" fill="#FCFCFC"/>
</svg>
