<svg width="20" height="22" viewBox="0 0 20 22" fill="none" xmlns="http://www.w3.org/2000/svg">
<path d="M8 3.25C7.58579 3.25 7.25 3.58579 7.25 4C7.25 4.41421 7.58579 4.75 8 4.75H9C9.41421 4.75 9.75 4.41421 9.75 4C9.75 3.58579 9.41421 3.25 9 3.25H8Z" fill="#010123"/>
<path d="M9.25 6C9.25 5.58579 9.58579 5.25 10 5.25H11C11.4142 5.25 11.75 5.58579 11.75 6C11.75 6.41421 11.4142 6.75 11 6.75H10C9.58579 6.75 9.25 6.41421 9.25 6Z" fill="#010123"/>
<path d="M8 7.25C7.58579 7.25 7.25 7.58579 7.25 8C7.25 8.41421 7.58579 8.75 8 8.75H9C9.41421 8.75 9.75 8.41421 9.75 8C9.75 7.58579 9.41421 7.25 9 7.25H8Z" fill="#010123"/>
<path d="M9.25 10C9.25 9.58579 9.58579 9.25 10 9.25H11C11.4142 9.25 11.75 9.58579 11.75 10C11.75 10.4142 11.4142 10.75 11 10.75H10C9.58579 10.75 9.25 10.4142 9.25 10Z" fill="#010123"/>
<path d="M8 11.25C7.58579 11.25 7.25 11.5858 7.25 12C7.25 12.4142 7.58579 12.75 8 12.75H9C9.41421 12.75 9.75 12.4142 9.75 12C9.75 11.5858 9.41421 11.25 9 11.25H8Z" fill="#010123"/>
<path d="M9.25 14C9.25 13.5858 9.58579 13.25 10 13.25H11C11.4142 13.25 11.75 13.5858 11.75 14C11.75 14.4142 11.4142 14.75 11 14.75H10C9.58579 14.75 9.25 14.4142 9.25 14Z" fill="#010123"/>
<path fill-rule="evenodd" clip-rule="evenodd" d="M18.3621 20.1353C17.3685 21.2054 15.893 21.75 14 21.75H6C4.10705 21.75 2.63152 21.2054 1.6379 20.1353C0.653634 19.0754 0.25 17.615 0.25 16V6C0.25 4.38503 0.653634 2.92465 1.6379 1.86466C2.63152 0.794615 4.10705 0.25 6 0.25H12.3431C13.6029 0.25 14.8111 0.750445 15.7019 1.64124L18.3588 4.2981C19.2496 5.1889 19.75 6.39708 19.75 7.65685V16C19.75 17.615 19.3464 19.0754 18.3621 20.1353ZM1.75 6C1.75 4.61497 2.09637 3.57535 2.7371 2.88534C3.36848 2.20538 4.39295 1.75 6 1.75H12.3431C13.2051 1.75 14.0317 2.09241 14.6412 2.7019L17.2981 5.35876C17.9076 5.96825 18.25 6.7949 18.25 7.65685V16C18.25 17.385 17.9036 18.4246 17.2629 19.1147C16.6315 19.7946 15.607 20.25 14 20.25H11.7321C11.7439 20.1677 11.75 20.0842 11.75 20V18C11.75 17.2707 11.4603 16.5712 10.9445 16.0555C10.4288 15.5397 9.72935 15.25 9 15.25C8.27065 15.25 7.57118 15.5397 7.05546 16.0555C6.53973 16.5712 6.25 17.2707 6.25 18V20C6.25 20.0842 6.25606 20.1677 6.26794 20.25H6C4.39295 20.25 3.36848 19.7946 2.7371 19.1147C2.09637 18.4246 1.75 17.385 1.75 16V6ZM10 20.25C10.0663 20.25 10.1299 20.2237 10.1768 20.1768C10.2237 20.1299 10.25 20.0663 10.25 20V18C10.25 17.6685 10.1183 17.3505 9.88388 17.1161C9.64946 16.8817 9.33152 16.75 9 16.75C8.66848 16.75 8.35054 16.8817 8.11612 17.1161C7.8817 17.3505 7.75 17.6685 7.75 18V20C7.75 20.0663 7.77634 20.1299 7.82322 20.1768C7.87011 20.2237 7.93369 20.25 8 20.25H10Z" fill="#010123"/>
</svg>
