<svg width="40" height="41" viewBox="0 0 40 41" fill="none" xmlns="http://www.w3.org/2000/svg">
<rect y="0.00244141" width="40" height="40" rx="20" fill="#2BD4BD"/>
<g clip-path="url(#clip0_1660_7499)">
<path d="M20.871 20.1217C20.871 19.674 20.481 19.311 20 19.311C19.519 19.311 19.129 19.674 19.129 20.1217V22.2834C19.129 22.7311 19.519 23.094 20 23.094C20.481 23.094 20.871 22.7311 20.871 22.2834V20.1217Z" fill="#010123"/>
<path fill-rule="evenodd" clip-rule="evenodd" d="M11.7236 28.8809C11.2555 28.3493 10.9998 27.6829 11 26.9956V11.4748C11 9.83321 12.4298 8.50244 14.1935 8.50244H24.6452C25.8001 8.50244 26.9078 8.92948 27.7245 9.6896C28.5412 10.4497 29 11.4807 29 12.5557V27.6877C29 28.1893 28.7859 28.6704 28.4048 29.0252C28.0236 29.3799 27.5067 29.5792 26.9677 29.5792H24.3548V29.6121C24.3547 29.8918 24.2878 30.168 24.1591 30.4208C24.0304 30.6736 23.8431 30.8967 23.6106 31.074C23.3781 31.2513 23.1063 31.3784 22.8147 31.4461C22.5231 31.5139 22.219 31.5206 21.9243 31.4658L13.5676 29.9115C12.8434 29.7768 12.1917 29.4126 11.7236 28.8809ZM22.6129 28.7667L22.6129 28.7685L22.6129 28.7704V29.6111C22.6129 29.6511 22.6033 29.6905 22.5849 29.7266C22.5666 29.7628 22.5398 29.7946 22.5066 29.82C22.4734 29.8453 22.4346 29.8634 22.3929 29.8731C22.3512 29.8828 22.3078 29.8838 22.2657 29.8759L13.909 28.3216C13.5798 28.2604 13.2836 28.0949 13.0708 27.8532C12.858 27.6115 12.7418 27.3087 12.7419 26.9962V11.6205C12.7419 10.9384 13.4124 10.4268 14.131 10.5606L20.512 11.7487C21.1042 11.8589 21.6373 12.1567 22.0203 12.5913C22.4033 13.0259 22.6127 13.5706 22.6129 14.1326V28.7667ZM27.173 27.8787C27.1186 27.9294 27.0447 27.9579 26.9677 27.9579H24.3548V14.1326C24.3546 13.1957 24.0056 12.2876 23.3672 11.5632C22.7289 10.8388 21.8407 10.3426 20.8537 10.1589L20.6646 10.1237H24.6452C25.3381 10.1237 26.0027 10.3799 26.4928 10.836C26.9828 11.2921 27.2581 11.9107 27.2581 12.5557V27.6877C27.2581 27.7593 27.2275 27.8281 27.173 27.8787Z" fill="#010123"/>
</g>
<defs>
<clipPath id="clip0_1660_7499">
<rect width="24" height="24" fill="white" transform="translate(8 8.00244)"/>
</clipPath>
</defs>
</svg>
