<svg width="22" height="22" viewBox="0 0 22 22" fill="none" xmlns="http://www.w3.org/2000/svg">
<path fill-rule="evenodd" clip-rule="evenodd" d="M9.93009 2.84683L8.17203 6.36294C7.98469 6.74378 7.67178 7.0692 7.35042 7.30747C7.02813 7.54644 6.62764 7.74945 6.21553 7.81943L6.21289 7.81988L3.02327 8.34981C2.13367 8.49816 1.84387 8.84851 1.77693 9.05816C1.70974 9.26855 1.7433 9.72269 2.3803 10.3597L4.8603 12.8397C5.18269 13.1621 5.39834 13.5932 5.51726 14.0086C5.63627 14.4244 5.68078 14.9025 5.58181 15.344L5.5807 15.349L4.87068 18.419C4.60626 19.5617 4.87372 19.9788 5.00954 20.0779C5.14596 20.1774 5.62632 20.305 6.6372 19.705L9.63279 17.9317C10.0487 17.6897 10.5468 17.59 11.0037 17.59C11.4598 17.59 11.9581 17.6894 12.372 17.9346L15.3614 19.7043C16.3805 20.3061 16.8604 20.1791 16.9944 20.0815C17.1271 19.9847 17.3945 19.5702 17.1291 18.4184L16.4181 15.3441C16.3191 14.9025 16.3637 14.4244 16.4827 14.0086C16.6016 13.5932 16.8172 13.1621 17.1396 12.8397L19.6196 10.3597L19.6215 10.3579C20.2626 9.72104 20.2942 9.26813 20.2272 9.05952C20.1596 8.84925 19.8674 8.49835 18.977 8.34987L15.787 7.81987C15.3707 7.75048 14.9671 7.54824 14.6422 7.30851C14.3186 7.06977 14.0054 6.74405 13.8179 6.363L12.0584 2.84402C11.6377 1.998 11.21 1.82751 10.9987 1.82751C10.7861 1.82751 10.3558 2.00015 9.93009 2.84683ZM13.4012 2.17535C12.8719 1.11171 12.0447 0.327515 10.9987 0.327515C9.95387 0.327515 9.12405 1.11037 8.58985 2.1732L6.82915 5.6946L6.82642 5.70011C6.77359 5.80797 6.64731 5.96146 6.45702 6.10256C6.26737 6.24317 6.0834 6.32012 5.96547 6.34042L5.96441 6.3406L2.77705 6.87016C1.62694 7.06184 0.661056 7.62155 0.348011 8.60187C0.0351941 9.58148 0.496634 10.5973 1.31964 11.4203L3.79964 13.9003C3.89724 13.998 4.0066 14.1818 4.07518 14.4214C4.14334 14.6595 4.1491 14.8755 4.11856 15.014L4.11813 15.016L3.40928 18.0809C3.11373 19.3582 3.21624 20.6263 4.12539 21.2896C5.03398 21.9526 6.27361 21.6651 7.40273 20.995L10.3871 19.2283L10.389 19.2272C10.5232 19.1497 10.7443 19.09 11.0037 19.09C11.265 19.09 11.4816 19.1505 11.6076 19.2252L14.5979 20.9954C15.7284 21.6632 16.9695 21.9559 17.878 21.2936C18.7878 20.6303 18.8854 19.3599 18.5908 18.0816L17.8818 15.016L17.8814 15.014C17.8508 14.8755 17.8566 14.6595 17.9248 14.4214C17.9933 14.1818 18.1027 13.998 18.2003 13.9003L20.6785 11.4222L20.6795 11.4211C21.5077 10.5982 21.9706 9.58149 21.6552 8.60051C21.3403 7.6208 20.3726 7.06178 19.2233 6.87022L16.0333 6.34022" fill="#FCFCFC"/>
</svg>
