<svg width="40" height="41" viewBox="0 0 40 41" fill="none" xmlns="http://www.w3.org/2000/svg">
<rect y="0.00244141" width="40" height="40" rx="20" fill="#61A6FA"/>
<path fill-rule="evenodd" clip-rule="evenodd" d="M10.3735 14.8197C11.259 13.767 12.777 13.2524 15 13.2524H25C27.223 13.2524 28.7411 13.767 29.6265 14.8197C30.5033 15.8621 30.5867 17.2316 30.4462 18.5086L29.6958 26.5123C29.5856 27.5404 29.3275 28.6675 28.4096 29.5062C27.4985 30.3386 26.0869 30.7524 24 30.7524H16C13.9132 30.7524 12.5015 30.3386 11.5904 29.5062C10.6725 28.6675 10.4144 27.5404 10.3043 26.5123L10.3032 26.5025L9.55385 18.5086C9.41332 17.2316 9.49672 15.8621 10.3735 14.8197ZM11.5215 15.7852C11.0497 16.346 10.917 17.1887 11.0455 18.35L11.0468 18.3624L11.7963 26.3574C11.8963 27.2867 12.1034 27.9431 12.6021 28.3987C13.1085 28.8613 14.0669 29.2524 16 29.2524H24C25.9332 29.2524 26.8915 28.8613 27.3979 28.3987C27.8966 27.9431 28.1037 27.2867 28.2037 26.3574L28.9544 18.3499C29.0829 17.1887 28.9503 16.346 28.4785 15.7852C28.014 15.2329 27.047 14.7524 25 14.7524H15C12.953 14.7524 11.9861 15.2329 11.5215 15.7852Z" fill="#010123"/>
<path fill-rule="evenodd" clip-rule="evenodd" d="M16.7937 12.0528C16.7512 12.3782 16.75 12.748 16.75 13.2024V14.0024C16.75 14.4167 16.4142 14.7524 16 14.7524C15.5858 14.7524 15.25 14.4167 15.25 14.0024L15.25 13.1765C15.25 12.7529 15.25 12.2903 15.3063 11.8586C15.3647 11.4113 15.4899 10.9364 15.783 10.5123C16.3998 9.61993 17.5295 9.25244 19.2 9.25244H20.8C22.4705 9.25244 23.6002 9.61993 24.217 10.5123C24.5101 10.9364 24.6353 11.4113 24.6937 11.8586C24.7501 12.2903 24.75 12.7529 24.75 13.1765L24.75 14.0024C24.75 14.4167 24.4142 14.7524 24 14.7524C23.5858 14.7524 23.25 14.4167 23.25 14.0024V13.2024C23.25 12.748 23.2488 12.3782 23.2063 12.0528C23.1647 11.7342 23.0899 11.5197 22.983 11.3651C22.7998 11.1 22.3295 10.7524 20.8 10.7524H19.2C17.6705 10.7524 17.2002 11.1 17.017 11.3651C16.9102 11.5197 16.8353 11.7342 16.7937 12.0528Z" fill="#010123"/>
<path fill-rule="evenodd" clip-rule="evenodd" d="M18.7508 20.7532C18.75 20.8246 18.75 20.906 18.75 21.0024V22.0324C18.75 22.314 18.7525 22.521 18.7769 22.6967C18.8004 22.8657 18.8377 22.9479 18.8694 22.9925C18.9047 23.0423 19.0806 23.2524 20 23.2524C20.9236 23.2524 21.0974 23.0403 21.1319 22.991C21.1638 22.9455 21.201 22.862 21.2241 22.6911C21.2482 22.5134 21.25 22.3054 21.25 22.0224V21.0024C21.25 20.906 21.25 20.8246 21.2492 20.7532C21.1778 20.7525 21.0964 20.7524 21 20.7524H19C18.9036 20.7524 18.8222 20.7525 18.7508 20.7532ZM18.9672 19.2524C18.9781 19.2524 18.9891 19.2524 19 19.2524H21C21.0109 19.2524 21.0219 19.2524 21.0329 19.2524C21.254 19.2524 21.4781 19.2523 21.661 19.2727C21.8473 19.2934 22.157 19.3487 22.4053 19.5971C22.6537 19.8455 22.7091 20.1551 22.7298 20.3415C22.7501 20.5244 22.7501 20.7484 22.75 20.9696C22.75 20.9805 22.75 20.9915 22.75 21.0024V22.0337C22.75 22.2934 22.75 22.6007 22.7106 22.8922C22.6696 23.1948 22.58 23.5381 22.3606 23.8514C21.8926 24.5196 21.0664 24.7524 20 24.7524C18.9394 24.7524 18.1153 24.5226 17.6456 23.8599C17.4248 23.5483 17.3333 23.2061 17.2912 22.9035C17.25 22.6076 17.25 22.2959 17.25 22.0324V21.0024C17.25 20.9915 17.25 20.9806 17.25 20.9696C17.2499 20.7485 17.2499 20.5244 17.2702 20.3415C17.2909 20.1551 17.3463 19.8455 17.5947 19.5971C17.843 19.3487 18.1527 19.2934 18.3391 19.2727C18.5219 19.2523 18.746 19.2524 18.9672 19.2524Z" fill="#010123"/>
<path fill-rule="evenodd" clip-rule="evenodd" d="M30.2566 18.5613C30.5002 18.8963 30.4261 19.3654 30.0911 19.609C27.675 21.3662 24.9145 22.4114 22.0937 22.7666C21.6827 22.8183 21.3076 22.5271 21.2559 22.1161C21.2041 21.7052 21.4953 21.3301 21.9063 21.2783C24.4855 20.9535 27.005 19.9987 29.2089 18.3959C29.5439 18.1523 30.0129 18.2263 30.2566 18.5613Z" fill="#010123"/>
<path fill-rule="evenodd" clip-rule="evenodd" d="M10.0011 18.8488C10.235 18.507 10.7018 18.4196 11.0436 18.6535C13.1925 20.1243 15.6157 21.0108 18.0835 21.2871C18.4951 21.3332 18.7914 21.7043 18.7453 22.1159C18.6993 22.5275 18.3282 22.8239 17.9165 22.7778C15.2043 22.4741 12.5475 21.5006 10.1964 19.8914C9.85457 19.6574 9.76713 19.1906 10.0011 18.8488Z" fill="#010123"/>
</svg>
