<svg width="40" height="41" viewBox="0 0 40 41" fill="none" xmlns="http://www.w3.org/2000/svg">
<rect y="0.00244141" width="40" height="40" rx="20" fill="#F471B5"/>
<path fill-rule="evenodd" clip-rule="evenodd" d="M26.65 11.2524C25.9802 11.2524 25.3864 11.5684 25.0135 12.051C24.9934 12.077 24.9718 12.1014 24.9489 12.1242C24.6959 12.4778 24.55 12.8931 24.55 13.3524C24.55 14.5182 25.4842 15.4524 26.65 15.4524C27.1449 15.4524 27.5921 15.2834 27.9445 15.0044L27.9458 15.0033C28.4347 14.6182 28.75 14.021 28.75 13.3524C28.75 12.1867 27.8158 11.2524 26.65 11.2524ZM23.8982 11.0442C24.5479 10.2578 25.5413 9.75244 26.65 9.75244C28.6442 9.75244 30.25 11.3582 30.25 13.3524C30.25 14.5039 29.7053 15.5267 28.8742 16.1816L28.41 15.5924L28.8755 16.1805C28.2679 16.6615 27.4951 16.9524 26.65 16.9524C24.6558 16.9524 23.05 15.3467 23.05 13.3524C23.05 12.5034 23.3433 11.744 23.8173 11.1328C23.8421 11.1009 23.8691 11.0714 23.8982 11.0442Z" fill="#010123"/>
<path fill-rule="evenodd" clip-rule="evenodd" d="M13.35 11.2524C12.1842 11.2524 11.25 12.1867 11.25 13.3524C11.25 14.02 11.5644 14.6164 12.0519 15.0016C12.4203 15.2865 12.86 15.4524 13.35 15.4524C14.5158 15.4524 15.45 14.5182 15.45 13.3524C15.45 12.8625 15.284 12.4227 14.9991 12.0544C14.6139 11.5668 14.0175 11.2524 13.35 11.2524ZM9.75 13.3524C9.75 11.3582 11.3558 9.75244 13.35 9.75244C14.5014 9.75244 15.5243 10.2971 16.1791 11.1283L16.1827 11.1328C16.6567 11.744 16.95 12.5034 16.95 13.3524C16.95 15.3467 15.3442 16.9524 13.35 16.9524C12.501 16.9524 11.7416 16.6591 11.1304 16.1851L11.1258 16.1816C10.2947 15.5267 9.75 14.5039 9.75 13.3524Z" fill="#010123"/>
<path fill-rule="evenodd" clip-rule="evenodd" d="M26.65 24.5524C25.4842 24.5524 24.55 25.4867 24.55 26.6524C24.55 27.115 24.6977 27.5358 24.9447 27.8765C24.9692 27.9005 24.9922 27.9263 25.0135 27.9539C25.3864 28.4364 25.9802 28.7524 26.65 28.7524C27.8158 28.7524 28.75 27.8182 28.75 26.6524C28.75 25.9827 28.434 25.3888 27.9514 25.0159C27.9255 24.9959 27.9011 24.9743 27.8782 24.9513C27.5246 24.6983 27.1094 24.5524 26.65 24.5524ZM23.05 26.6524C23.05 24.6582 24.6558 23.0524 26.65 23.0524C27.499 23.0524 28.2584 23.3458 28.8696 23.8198C28.9015 23.8445 28.9311 23.8716 28.9582 23.9006C29.7446 24.5504 30.25 25.5438 30.25 26.6524C30.25 28.6467 28.6442 30.2524 26.65 30.2524C25.5413 30.2524 24.5479 29.747 23.8982 28.9606C23.8709 28.9352 23.8454 28.9076 23.822 28.878C23.3409 28.2703 23.05 27.4975 23.05 26.6524Z" fill="#010123"/>
<path fill-rule="evenodd" clip-rule="evenodd" d="M12.1259 24.9471C12.1019 24.9716 12.0761 24.9946 12.0486 25.0159C11.566 25.3888 11.25 25.9827 11.25 26.6524C11.25 27.8182 12.1842 28.7524 13.35 28.7524C14.0235 28.7524 14.6166 28.4434 14.9975 27.9526C15.2834 27.5838 15.45 27.1433 15.45 26.6524C15.45 25.4867 14.5158 24.5524 13.35 24.5524C12.8875 24.5524 12.4666 24.7001 12.1259 24.9471ZM11.1245 23.8244C11.7321 23.3434 12.5049 23.0524 13.35 23.0524C15.3442 23.0524 16.95 24.6582 16.95 26.6524C16.95 27.5015 16.6567 28.2609 16.1827 28.8721C15.5236 29.7213 14.4965 30.2524 13.35 30.2524C11.3558 30.2524 9.75 28.6467 9.75 26.6524C9.75 25.5438 10.2554 24.5504 11.0418 23.9006C11.0672 23.8734 11.0948 23.8479 11.1245 23.8244Z" fill="#010123"/>
<path fill-rule="evenodd" clip-rule="evenodd" d="M16.6513 11.9192C16.842 12.3553 16.95 12.8374 16.95 13.3524C16.95 15.3467 15.3442 16.9524 13.35 16.9524C12.8349 16.9524 12.3528 16.8445 11.9168 16.6537C11.4856 17.685 11.25 18.8154 11.25 20.0024C11.25 21.197 11.4853 22.3222 11.9165 23.3513C12.3526 23.1605 12.8348 23.0524 13.35 23.0524C15.3442 23.0524 16.95 24.6582 16.95 26.6524C16.95 27.1637 16.8435 27.6485 16.6529 28.0863C17.6838 28.5171 18.8136 28.7524 20 28.7524C21.1946 28.7524 22.3197 28.5171 23.3489 28.086C23.158 27.6498 23.05 27.1676 23.05 26.6524C23.05 24.6582 24.6558 23.0524 26.65 23.0524C27.1614 23.0524 27.6463 23.159 28.0842 23.3497C28.5149 22.321 28.75 21.1964 28.75 20.0024C28.75 18.8154 28.5144 17.685 28.0832 16.6537C27.6472 16.8445 27.1651 16.9524 26.65 16.9524C24.6558 16.9524 23.05 15.3467 23.05 13.3524C23.05 12.841 23.1565 12.3561 23.3473 11.9182C22.3185 11.4875 21.1939 11.2524 20 11.2524C18.813 11.2524 17.6826 11.488 16.6513 11.9192ZM15.2386 10.9298C16.6654 10.1732 18.2859 9.75244 20 9.75244C21.7245 9.75244 23.335 10.1734 24.7614 10.9298C24.9581 11.0342 25.0983 11.2205 25.144 11.4385C25.1897 11.6564 25.1363 11.8834 24.998 12.058C24.7191 12.4103 24.55 12.8575 24.55 13.3524C24.55 14.5182 25.4842 15.4524 26.65 15.4524C27.141 15.4524 27.5816 15.2858 27.9504 14.9998C28.1253 14.8641 28.3512 14.8127 28.5677 14.8592C28.7841 14.9057 28.9689 15.0455 29.0726 15.2411C29.8292 16.6679 30.25 18.2883 30.25 20.0024C30.25 21.727 29.829 23.3374 29.0726 24.7638C28.9683 24.9605 28.7819 25.1007 28.564 25.1465C28.346 25.1922 28.1191 25.1387 27.9445 25.0005C27.5921 24.7215 27.1449 24.5524 26.65 24.5524C25.4842 24.5524 24.55 25.4867 24.55 26.6524C24.55 27.1434 24.7167 27.584 25.0027 27.9528C25.1383 28.1278 25.1898 28.3537 25.1432 28.5701C25.0967 28.7865 24.9569 28.9713 24.7614 29.075C23.335 29.8315 21.7245 30.2524 20 30.2524C18.2859 30.2524 16.6654 29.8317 15.2386 29.075C15.0419 28.9707 14.9017 28.7844 14.856 28.5664C14.8103 28.3485 14.8637 28.1215 15.002 27.9469C15.2809 27.5946 15.45 27.1474 15.45 26.6524C15.45 25.4867 14.5158 24.5524 13.35 24.5524C12.859 24.5524 12.4184 24.7191 12.0496 25.0051C11.8747 25.1408 11.6488 25.1922 11.4323 25.1457C11.2159 25.0992 11.0311 24.9594 10.9274 24.7638C10.171 23.3374 9.75 21.727 9.75 20.0024C9.75 18.2883 10.1708 16.6679 10.9274 15.2411C11.0311 15.0455 11.2159 14.9057 11.4323 14.8592C11.6488 14.8127 11.8747 14.8641 12.0496 14.9998C12.4184 15.2858 12.859 15.4524 13.35 15.4524C14.5158 15.4524 15.45 14.5182 15.45 13.3524C15.45 12.8615 15.2833 12.4209 14.9973 12.0521C14.8617 11.8771 14.8102 11.6512 14.8568 11.4348C14.9033 11.2184 15.0431 11.0336 15.2386 10.9298Z" fill="#010123"/>
</svg>
