<svg width="22" height="22" viewBox="0 0 22 22" fill="none" xmlns="http://www.w3.org/2000/svg">
<path fill-rule="evenodd" clip-rule="evenodd" d="M2.09467 2.09467C3.42914 0.760201 5.42603 0.25 8 0.25H14C16.574 0.25 18.5709 0.760201 19.9053 2.09467C21.2398 3.42914 21.75 5.42603 21.75 8V14C21.75 16.574 21.2398 18.5709 19.9053 19.9053C18.5709 21.2398 16.574 21.75 14 21.75H8C5.42603 21.75 3.42914 21.2398 2.09467 19.9053C0.760201 18.5709 0.25 16.574 0.25 14V8C0.25 5.42603 0.760201 3.42914 2.09467 2.09467ZM3.15533 3.15533C2.2398 4.07086 1.75 5.57397 1.75 8V14C1.75 16.426 2.2398 17.9291 3.15533 18.8447C4.07086 19.7602 5.57397 20.25 8 20.25H14C16.426 20.25 17.9291 19.7602 18.8447 18.8447C19.7602 17.9291 20.25 16.426 20.25 14V8C20.25 5.57397 19.7602 4.07086 18.8447 3.15533C17.9291 2.2398 16.426 1.75 14 1.75H8C5.57397 1.75 4.07086 2.2398 3.15533 3.15533Z" fill="#010123"/>
<path fill-rule="evenodd" clip-rule="evenodd" d="M0.77 6.11C0.77 5.69579 1.10579 5.36 1.52 5.36H20.48C20.8942 5.36 21.23 5.69579 21.23 6.11C21.23 6.52421 20.8942 6.86 20.48 6.86H1.52C1.10579 6.86 0.77 6.52421 0.77 6.11Z" fill="#010123"/>
<path fill-rule="evenodd" clip-rule="evenodd" d="M7.52 0.36C7.93421 0.36 8.27 0.695786 8.27 1.11V5.97C8.27 6.38421 7.93421 6.72 7.52 6.72C7.10579 6.72 6.77 6.38421 6.77 5.97V1.11C6.77 0.695786 7.10579 0.36 7.52 0.36Z" fill="#010123"/>
<path fill-rule="evenodd" clip-rule="evenodd" d="M14.48 0.36C14.8942 0.36 15.23 0.695786 15.23 1.11V5.52C15.23 5.93421 14.8942 6.27 14.48 6.27C14.0658 6.27 13.73 5.93421 13.73 5.52V1.11C13.73 0.695786 14.0658 0.36 14.48 0.36Z" fill="#010123"/>
<path fill-rule="evenodd" clip-rule="evenodd" d="M9.83674 11.333C9.70981 11.4064 9.5 11.6402 9.5 12.25V14.65C9.5 15.2598 9.70981 15.4936 9.83674 15.567C9.96311 15.6401 10.2687 15.7052 10.7942 15.4009L12.8742 14.2009C13.3993 13.8968 13.4975 13.5982 13.4975 13.45C13.4975 13.3018 13.3997 13.0035 12.8747 12.6993L10.7942 11.4991C10.2687 11.1948 9.96311 11.2599 9.83674 11.333ZM11.5453 10.2006C10.7409 9.73513 9.83673 9.60019 9.08576 10.0345C8.33519 10.4686 8 11.3198 8 12.25V14.65C8 15.5802 8.33519 16.4314 9.08576 16.8655C9.83674 17.2998 10.741 17.1649 11.5453 16.6993L13.6258 15.4991C14.4303 15.0333 14.9975 14.3168 14.9975 13.45C14.9975 12.5832 14.4303 11.8667 13.6258 11.4009L12.5848 10.8004L11.5453 10.2006Z" fill="#010123"/>
</svg>
