<svg width="6" height="8" viewBox="0 0 6 8" fill="none" xmlns="http://www.w3.org/2000/svg">
<path d="M1.13074 0.139661C0.947994 -0.0469277 0.652123 -0.0464979 0.469894 0.14062C0.287665 0.327738 0.288084 0.630687 0.470831 0.817276L2.67021 3.06289C2.85259 3.2491 3.14774 3.2491 3.33012 3.06289L5.52949 0.817276C5.71224 0.630687 5.71266 0.327738 5.53043 0.14062C5.3482 -0.0464979 5.05233 -0.0469277 4.86959 0.139661L3.00016 2.04838L1.13074 0.139661Z" fill="#9F94FF"/>
<path d="M0.470831 7.18272C0.288084 7.36931 0.287665 7.67226 0.469894 7.85938C0.652123 8.0465 0.947994 8.04693 1.13074 7.86034L3.00016 5.95162L4.86959 7.86034C5.05233 8.04693 5.3482 8.0465 5.53043 7.85938C5.71266 7.67226 5.71224 7.36931 5.52949 7.18272L3.33012 4.93711C3.14774 4.7509 2.85259 4.7509 2.67021 4.93711L0.470831 7.18272Z" fill="#9F94FF"/>
</svg>
