<svg width="30" height="30" viewBox="0 0 30 30" fill="none" xmlns="http://www.w3.org/2000/svg">
<path fill-rule="evenodd" clip-rule="evenodd" d="M14.9333 2.73334C8.0029 2.73334 2.53071 8.33732 2.66648 15.2738L2.66667 15.2933V23.5067C2.66667 25.5429 4.38077 27.2667 6.42667 27.2667C8.47439 27.2667 10.1867 25.5544 10.1867 23.5067V19.76C10.1867 18.9109 9.51384 18.3067 8.73334 18.3067C7.88427 18.3067 7.28001 18.9795 7.28001 19.76V23.6533C7.28001 24.2056 6.83229 24.6533 6.28001 24.6533C5.72772 24.6533 5.28 24.2056 5.28 23.6533V19.76C5.28 17.9538 6.7024 16.3067 8.73334 16.3067C10.5395 16.3067 12.1867 17.7291 12.1867 19.76V23.5067C12.1867 26.659 9.57896 29.2667 6.42667 29.2667C3.27257 29.2667 0.666672 26.6438 0.666672 23.5067V15.303C0.514545 7.25731 6.88043 0.733337 14.9333 0.733337C22.9874 0.733337 29.3333 7.25616 29.3333 15.1467V23.36C29.3333 26.5123 26.7256 29.12 23.5733 29.12C20.4211 29.12 17.8133 26.5123 17.8133 23.36V19.6133C17.8133 17.8072 19.2357 16.16 21.2667 16.16C23.0728 16.16 24.72 17.5824 24.72 19.6133V23.6533C24.72 24.2056 24.2723 24.6533 23.72 24.6533C23.1677 24.6533 22.72 24.2056 22.72 23.6533V19.6133C22.72 18.7643 22.0472 18.16 21.2667 18.16C20.4176 18.16 19.8133 18.8328 19.8133 19.6133V23.36C19.8133 25.4077 21.5256 27.12 23.5733 27.12C25.6211 27.12 27.3333 25.4077 27.3333 23.36V15.1467C27.3333 8.34384 21.866 2.73334 14.9333 2.73334Z" fill="#FCFCFC"/>
</svg>
