<svg width="30" height="24" viewBox="0 0 30 24" fill="none" xmlns="http://www.w3.org/2000/svg">
<path fill-rule="evenodd" clip-rule="evenodd" d="M17.6836 1.03137C19.2328 1.88738 20 3.69186 20 5.87998V18.12C20 20.3027 19.2321 22.1057 17.6846 22.963C16.1368 23.8206 14.2009 23.5151 12.349 22.354L8.46683 19.921C8.18334 19.7548 7.86844 19.6666 7.57334 19.6666H5.66667C4.17919 19.6666 2.87991 19.2941 1.95957 18.3738C1.03922 17.4534 0.666672 16.1541 0.666672 14.6666V9.33331C0.666672 7.84583 1.03922 6.54655 1.95957 5.6262C2.87991 4.70586 4.17919 4.33331 5.66667 4.33331H7.57334C7.86844 4.33331 8.18335 4.24515 8.46685 4.07893L12.3488 1.64607C14.1992 0.485952 16.135 0.175658 17.6836 1.03137ZM16.7164 2.78191C16.0451 2.41099 14.9208 2.39409 13.4112 3.34055L9.50754 5.78703L9.49721 5.79316C8.92978 6.13008 8.26168 6.33331 7.57334 6.33331H5.66667C4.48748 6.33331 3.78677 6.62743 3.37378 7.04042C2.96079 7.4534 2.66667 8.15412 2.66667 9.33331V14.6666C2.66667 15.8458 2.96079 16.5466 3.37378 16.9595C3.78677 17.3725 4.48748 17.6666 5.66667 17.6666H7.57334C8.26167 17.6666 8.92978 17.8699 9.49721 18.2068L9.50754 18.2129L13.411 20.6593C14.919 21.6048 16.0433 21.586 16.7154 21.2136C17.3879 20.841 18 19.8972 18 18.12V5.87998C18 4.09476 17.3872 3.15257 16.7164 2.78191Z" fill="#FCFCFC"/>
<path fill-rule="evenodd" clip-rule="evenodd" d="M22.3995 5.86705C22.8411 5.53538 23.4679 5.6245 23.7996 6.0661C26.4401 9.58188 26.4401 14.4181 23.7996 17.9339C23.4679 18.3755 22.8411 18.4646 22.3995 18.1329C21.9579 17.8012 21.8687 17.1744 22.2004 16.7328C24.3065 13.9285 24.3065 10.0714 22.2004 7.26718C21.8687 6.82558 21.9579 6.19872 22.3995 5.86705Z" fill="#FCFCFC"/>
<path fill-rule="evenodd" clip-rule="evenodd" d="M24.8397 2.53356C25.2814 2.202 25.9082 2.29129 26.2398 2.73298C30.3601 8.222 30.3601 15.778 26.2398 21.267C25.9082 21.7087 25.2814 21.7979 24.8397 21.4664C24.398 21.1348 24.3087 20.508 24.6403 20.0663C28.2266 15.2887 28.2266 8.71129 24.6403 3.93364C24.3087 3.49195 24.398 2.86511 24.8397 2.53356Z" fill="#FCFCFC"/>
</svg>
