<svg width="20" height="20" viewBox="0 0 20 20" fill="none" xmlns="http://www.w3.org/2000/svg">
<path d="M0.87482 0.00797416C0.678839 0.032872 0.494627 0.115261 0.345426 0.244739L0.34367 0.245394C0.194494 0.374827 0.0869811 0.545538 0.0346974 0.736C-0.0176305 0.926623 -0.0122887 1.12848 0.0500479 1.31607L2.15703 7.63289C2.42937 8.44939 3.19355 9.00007 4.05427 9.00007H8.00005C8.26526 9.00007 8.51962 9.10542 8.70716 9.29296C8.89469 9.4805 9.00005 9.73485 9.00005 10.0001C9.00005 10.2653 8.89469 10.5196 8.70716 10.7072C8.51962 10.8947 8.26526 11.0001 8.00005 11.0001H4.05445C3.19364 11.0001 2.4294 11.5509 2.15713 12.3675L0.0510481 18.6841C-0.0116114 18.8717 -0.0171948 19.0738 0.0350045 19.2646C0.0872038 19.4554 0.194839 19.6265 0.344292 19.7562C0.493744 19.8858 0.678296 19.9682 0.874593 19.9929C1.07089 20.0177 1.27011 19.9836 1.44705 19.8951L19.447 10.8951C19.6135 10.8121 19.7534 10.6844 19.8513 10.5263C19.9491 10.3682 20.001 10.186 20.001 10.0001C20.001 9.81414 19.9491 9.63189 19.8513 9.47379C19.7534 9.31569 19.6135 9.188 19.447 9.10507L1.44705 0.105067C1.2701 0.0168431 1.07097 -0.0169447 0.87482 0.00797416Z" fill="#42A7FF"/>
</svg>
