<svg width="6" height="8" viewBox="0 0 6 8" fill="none" xmlns="http://www.w3.org/2000/svg">
<path d="M4.86958 3.0629C5.05233 3.24949 5.3482 3.24906 5.53043 3.06194C5.71266 2.87482 5.71224 2.57187 5.52949 2.38528L3.33012 0.139661C3.14774 -0.0465537 2.85259 -0.0465537 2.67021 0.139661L0.470831 2.38528C0.288084 2.57187 0.287665 2.87482 0.469894 3.06194C0.652123 3.24906 0.947994 3.24949 1.13074 3.0629L3.00016 1.15417L4.86958 3.0629Z" fill="#9F94FF"/>
<path d="M5.52949 5.61472C5.71224 5.42813 5.71266 5.12518 5.53043 4.93806C5.3482 4.75094 5.05233 4.75051 4.86958 4.9371L3.00016 6.84583L1.13074 4.9371C0.947994 4.75051 0.652123 4.75094 0.469894 4.93806C0.287665 5.12518 0.288084 5.42813 0.470831 5.61472L2.67021 7.86034C2.85259 8.04655 3.14774 8.04655 3.33012 7.86034L5.52949 5.61472Z" fill="#9F94FF"/>
</svg>
