<svg width="20" height="22" viewBox="0 0 20 22" fill="none" xmlns="http://www.w3.org/2000/svg">
<path fill-rule="evenodd" clip-rule="evenodd" d="M2.96578 4.03369C4.97033 3.83124 6.97512 3.73 8.98005 3.73C12.3454 3.73 15.7201 3.90129 19.074 4.23366C19.4862 4.2745 19.7872 4.64177 19.7464 5.05396C19.7055 5.46616 19.3383 5.76719 18.9261 5.72634C15.62 5.39871 12.2947 5.23 8.98005 5.23C7.02535 5.23 5.07051 5.32872 3.11543 5.5262L3.11323 5.52642L1.07323 5.72642C0.660996 5.76684 0.294048 5.46542 0.253633 5.05318C0.213218 4.64094 0.514639 4.27399 0.926876 4.23358L2.96578 4.03369Z" fill="#FCFCFC"/>
<path fill-rule="evenodd" clip-rule="evenodd" d="M7.45964 2.78456L7.2397 4.09421C7.17109 4.50271 6.78433 4.77824 6.37584 4.70964C5.96735 4.64104 5.69181 4.25428 5.76041 3.84578L5.98041 2.53579C5.98426 2.51297 5.98821 2.48908 5.99222 2.46487C6.06108 2.04899 6.16209 1.43887 6.56879 0.977691C7.04285 0.440117 7.76615 0.25 8.69005 0.25H11.3101C12.2452 0.25 12.9678 0.455399 13.439 0.998446C13.8463 1.46776 13.9448 2.08006 14.0105 2.48891C14.0137 2.5088 14.0168 2.52822 14.0199 2.54711L14.2395 3.84486C14.3087 4.25326 14.0336 4.64037 13.6252 4.70949C13.2168 4.7786 12.8297 4.50355 12.7606 4.09514L12.5398 2.79069C12.4562 2.27767 12.4033 2.09352 12.3061 1.98155C12.2523 1.9196 12.0649 1.75 11.3101 1.75H8.69005C7.92396 1.75 7.74226 1.91488 7.69382 1.96981C7.6017 2.07427 7.54972 2.24976 7.45964 2.78456Z" fill="#FCFCFC"/>
<path fill-rule="evenodd" clip-rule="evenodd" d="M16.8984 7.39156C17.3117 7.41824 17.6252 7.77496 17.5985 8.18831L16.9482 18.2624L16.9469 18.2814C16.9205 18.6577 16.8916 19.0714 16.814 19.4564C16.7337 19.8555 16.592 20.2768 16.3049 20.6506C15.7037 21.4333 14.6806 21.75 13.2101 21.75H6.79005C5.31949 21.75 4.29643 21.4333 3.69526 20.6506C3.40815 20.2768 3.26646 19.8555 3.18607 19.4564C3.10854 19.0714 3.07957 18.6577 3.05322 18.2814L3.0516 18.2583L2.40161 8.18831C2.37493 7.77496 2.68839 7.41824 3.10174 7.39156C3.5151 7.36488 3.87182 7.67834 3.8985 8.09169L4.54822 18.1576L4.54836 18.1596C4.57659 18.5624 4.60047 18.8818 4.65654 19.1602C4.71115 19.4313 4.78696 19.6094 4.88485 19.7369C5.05368 19.9567 5.47062 20.25 6.79005 20.25H13.2101C14.5295 20.25 14.9464 19.9567 15.1153 19.7369C15.2132 19.6094 15.289 19.4313 15.3436 19.1602C15.3996 18.8818 15.4235 18.5624 15.4517 18.1596L15.4519 18.1576L16.1016 8.09169C16.1283 7.67834 16.485 7.36488 16.8984 7.39156Z" fill="#FCFCFC"/>
<path fill-rule="evenodd" clip-rule="evenodd" d="M7.58005 15.5C7.58005 15.0858 7.91584 14.75 8.33005 14.75H11.6601C12.0743 14.75 12.4101 15.0858 12.4101 15.5C12.4101 15.9142 12.0743 16.25 11.6601 16.25H8.33005C7.91584 16.25 7.58005 15.9142 7.58005 15.5Z" fill="#FCFCFC"/>
<path fill-rule="evenodd" clip-rule="evenodd" d="M6.75005 11.5C6.75005 11.0858 7.08584 10.75 7.50005 10.75H12.5001C12.9143 10.75 13.2501 11.0858 13.2501 11.5C13.2501 11.9142 12.9143 12.25 12.5001 12.25H7.50005C7.08584 12.25 6.75005 11.9142 6.75005 11.5Z" fill="#FCFCFC"/>
</svg>
